<svg width="250" height="250" viewBox="0 0 250 250" fill="none" xmlns="http://www.w3.org/2000/svg">
<path d="M184.851 250H18.3869C15.7669 250 13.334 249.553 11.0883 248.659C8.84255 247.765 6.87754 246.558 5.19324 245.038C3.60252 243.428 2.3393 241.55 1.40358 239.405C0.46786 237.259 0 234.934 0 232.43V57.6717H36.4931V215.129H184.851V250Z" fill="white"/>
<path d="M218.863 200.558H69.0449C66.6869 200.558 64.4973 200.156 62.4761 199.351C60.455 198.546 58.6865 197.46 57.1706 196.092C55.739 194.643 54.6021 192.953 53.7599 191.022C52.9178 189.091 52.4967 186.998 52.4967 184.745V27.4624H85.3405V169.174H218.863V200.558Z" fill="white"/>
<path d="M250 153.863H116.828C114.732 153.863 112.786 153.505 110.989 152.79C109.193 152.074 107.621 151.109 106.273 149.893C105.001 148.605 103.99 147.103 103.242 145.386C102.493 143.67 102.119 141.81 102.119 139.807V0H131.313V125.966H250V153.863Z" fill="white"/>
</svg>
